<?xml version="1.0" encoding="UTF-8"?>
<svg width="28px" height="28px" viewBox="0 0 28 28" version="1.1" xmlns="http://www.w3.org/2000/svg" xmlns:xlink="http://www.w3.org/1999/xlink">
    <!-- Generator: sketchtool 64 (101010) - https://sketch.com -->
    <title>F3C618B1-4327-41F9-B522-FA1C8D360D22</title>
    <desc>Created with sketchtool.</desc>
    <defs>
        <path d="M23.7786535,3.24352529 L22.7035307,2.17049416 C21.9129888,1.38143969 20.6818153,1.29448638 19.7933553,1.90857198 C15.6454176,-0.636190661 10.307866,-0.636190661 6.15992836,1.90857198 C5.27146833,1.29448638 4.04029484,1.38138911 3.24975293,2.17049416 L2.1746808,3.24352529 C1.37521881,4.04138132 1.29985429,5.26970428 1.91199464,6.14844358 C-0.637424462,10.2882101 -0.637323097,15.6152257 1.91224805,19.7548911 C1.2969654,20.641572 1.38398684,21.8702996 2.17463012,22.6594047 L3.24975293,23.7324358 C4.03644298,24.5175953 5.2672617,24.6130973 6.16038451,23.9946109 C8.23425195,25.2667899 10.6052695,25.9033852 12.9766418,25.9033852 C15.3481662,25.9033852 17.7193865,25.2666887 19.7933553,23.9943074 C20.6806496,24.6076342 21.9110629,24.5233619 22.7035307,23.7323852 L23.7786535,22.6593541 C24.5692968,21.870249 24.6563182,20.6415214 24.0410356,19.7548405 C26.5906067,15.6151245 26.5907081,10.2881595 24.041289,6.148393 C24.6536321,5.26945136 24.5779635,4.04117899 23.7786535,3.24352529 Z M21.6284079,3.24352529 L22.7035307,4.31655642 C23.0006808,4.6131284 23.0006808,5.09301556 22.7035307,5.38958755 C21.9951954,6.09654475 19.2638777,8.82254864 18.8196477,9.2659144 C18.2870785,8.41964981 17.5552773,7.67515953 16.6693514,7.11980156 L20.5532344,3.24347471 C20.849675,2.94771206 21.332018,2.94766148 21.6284079,3.24352529 Z M12.9766418,18.313358 C9.97650536,18.313358 7.60432213,15.9610156 7.60432213,12.9514903 C7.60432213,9.95010895 9.96885234,7.58962257 12.9766418,7.58962257 C15.9831642,7.58962257 18.3489615,9.94818677 18.3489615,12.9514903 C18.3489615,15.9507471 15.9857997,18.313358 12.9766418,18.313358 Z M18.6503182,2.99672763 L15.2090434,6.43130739 C14.5016204,6.19523346 13.7499518,6.07211284 12.9766925,6.07211284 C12.2161545,6.07211284 11.4764469,6.19098444 10.7792617,6.41947082 L7.30884454,2.99349027 C10.8015619,1.02128405 15.1585132,1.0223463 18.6503182,2.99672763 Z M3.24975293,4.316607 L4.32487573,3.24357588 C4.62121491,2.94776265 5.10360868,2.94771206 5.40293811,3.24650973 C5.97787768,3.81405837 8.93711355,6.73546693 9.31018567,7.10381712 C8.45248977,7.63605837 7.69707067,8.37063424 7.13358528,9.26601556 C6.68971004,8.82300389 3.95717593,6.09578599 3.24970224,5.38968872 C2.95265351,5.09306615 2.95265351,4.6131284 3.24975293,4.316607 Z M3.00252486,7.28890272 L6.44379971,10.7234825 C6.2072656,11.4295292 6.08390497,12.1797354 6.08390497,12.9514903 C6.08390497,13.7232451 6.2072656,14.4734514 6.44379971,15.1794981 L3.00252486,18.6140778 C1.02317983,15.127144 1.02317983,10.7758872 3.00252486,7.28890272 Z M4.32487573,22.6594553 L3.24975293,21.5864241 C2.95331238,21.2906109 2.95331238,20.8092062 3.24975293,20.513393 C3.96138256,19.8031479 6.68991277,17.0799261 7.13363597,16.6370661 C7.66762427,17.485607 8.40520322,18.2376342 9.31023636,18.7992646 C8.94228314,19.1625564 5.97848587,22.0884163 5.40004922,22.6594553 C5.10371004,22.9552685 4.62136696,22.9553696 4.32487573,22.6594553 Z M7.30884454,22.9094903 L10.779211,19.4835097 C11.4763962,19.7119961 12.2161038,19.8308677 12.9766418,19.8308677 C13.7499011,19.8308677 14.5015697,19.7077471 15.2089927,19.4716732 L18.6502675,22.9062529 C15.1585132,24.8806342 10.8016126,24.8817471 7.30884454,22.9094903 L7.30884454,22.9094903 Z M22.7035307,21.5864241 L21.6284079,22.6594553 C21.331866,22.9553696 20.849675,22.9552685 20.5532344,22.6594553 C19.8234098,21.9310506 17.1018738,19.2147588 16.669402,18.7831284 C17.0987315,18.5139728 17.4998309,18.1955992 17.865402,17.8307393 C18.2309732,17.4658794 18.5499674,17.0655603 18.8196477,16.6370156 L22.7035307,20.5133424 C22.9999712,20.8092062 22.9999712,21.2905603 22.7035307,21.5864241 L22.7035307,21.5864241 Z M22.9508095,18.6140778 L19.5095346,15.1794981 C19.7460687,14.4734514 19.8694293,13.7232451 19.8694293,12.9514903 C19.8694293,12.1797354 19.7460687,11.4295292 19.5095346,10.7234825 L22.9508095,7.28890272 C24.9301545,10.7758872 24.9301545,15.127144 22.9508095,18.6140778 Z" id="path-1"></path>
    </defs>
    <g id="Dashboard---ClientSide" stroke="none" stroke-width="1" fill="none" fill-rule="evenodd">
        <g id="ClientSide---Dashboard---SnackBars" transform="translate(-348.000000, -193.000000)">
            <g id="Group-2" transform="translate(334.000000, 176.000000)">
                <g id="icon_help_blue" transform="translate(15.000000, 18.000000)">
                    <mask id="mask-2" fill="white">
                        <use xlink:href="#path-1"></use>
                    </mask>
                    <use id="help" stroke="#0C6C7E" stroke-width="0.5" fill="#0C6C7E" fill-rule="nonzero" xlink:href="#path-1"></use>
                </g>
            </g>
        </g>
    </g>
</svg>