<?xml version="1.0" encoding="UTF-8"?>
<svg width="26px" height="26px" viewBox="0 0 26 26" version="1.1" xmlns="http://www.w3.org/2000/svg" xmlns:xlink="http://www.w3.org/1999/xlink">
    <!-- Generator: sketchtool 64 (101010) - https://sketch.com -->
    <title>F00CECF6-7ACE-46F6-88CC-CB19F140C92E</title>
    <desc>Created with sketchtool.</desc>
    <g id="Dashboard---ClientSide" stroke="none" stroke-width="1" fill="none" fill-rule="evenodd">
        <g id="ClientSide---Dashboard---SnackBars" transform="translate(-349.000000, -274.000000)">
            <g id="Group-3" transform="translate(334.000000, 255.000000)">
                <g id="question_orange" transform="translate(15.000000, 19.000000)">
                    <circle id="Oval" stroke="#F18F01" stroke-width="2" cx="13" cy="13" r="12"></circle>
                    <path d="M13.4450871,14.846 L13.5150871,13.796 C15.3490871,13.782 16.6510871,12.802 16.6510871,10.996 C16.6510871,9.05 15.2930871,8 13.3470871,8 C11.1350871,8 9.95908714,9.344 10.0010871,11.024 L12.2550871,11.024 C12.2550871,10.38 12.6330871,9.96 13.3190871,9.96 C13.9350871,9.96 14.3270871,10.352 14.3270871,10.982 C14.3410871,12.004 13.4310871,12.242 12.1150871,12.242 L11.2750871,12.242 L11.3450871,14.846 L13.4450871,14.846 Z M12.4230871,18.486 C13.2630871,18.486 13.8370871,17.912 13.8370871,17.198 C13.8370871,16.456 13.2630871,15.882 12.4230871,15.882 C11.5690871,15.882 10.9950871,16.456 10.9950871,17.198 C10.9950871,17.912 11.5690871,18.486 12.4230871,18.486 Z" id="?" fill="#F18F01" fill-rule="nonzero"></path>
                </g>
            </g>
        </g>
    </g>
</svg>